<svg xmlns="http://www.w3.org/2000/svg" width="100" height="100" viewBox="0 0 100 100"><g fill="#fff"><path d="M99.7 44.4H86.5V31.3h-6.7v13.1H66.7v6.5h13.1V64h6.7V50.9h13.2zM58.1 5.3h-7.9c3.1 2.5 9.1 7.3 9.1 17.2 0 9.7-5.6 14.3-11.2 18.6-1.7 1.7-3.7 3.5-3.7 6.4 0 2.9 2 4.4 3.5 5.6l4.8 3.7c5.8 4.8 11.2 9.3 11.2 18.3 0 12.3-12.5 24.8-35.3 24.8C9.2 100 .3 90.9.3 81.2c0-4.7 2.4-11.4 10.2-16 8.2-5 19.4-5.6 25.4-6-1.9-2.4-4-4.8-4-8.9 0-2.2.7-3.5 1.3-5.1-1.5.1-2.9.3-4.3.3-14.1 0-22.1-10.3-22.1-20.6 0-6 1.9-13.1 7.6-18C22.1.7 31.8 0 39 0h27.7l-8.6 5.3zM23.4 64.9C20.5 66 12 69.1 12 78.4s9.2 16 23.4 16c12.8 0 19.5-6 19.5-14.1 0-6.7-4.4-10.2-14.5-17.3-1.1-.1-1.7-.1-3-.1-1.2-.1-8.4.2-14 2m7.5-60.1c-3.5 0-7.2 1.4-9.3 4-2.3 2.8-2.9 6.6-2.9 10 0 8.8 5.2 23.3 16.6 23.3 3.3 0 6.9-1.9 9-4 3.1-3 3.3-6.9 3.3-9.2 0-9.5-5.7-24.1-16.7-24.1"/></g></svg>